<svg xmlns="http://www.w3.org/2000/svg" width="32" height="32"><path fill="#fff" fill-rule="evenodd" d="M31.56 28.76a1.51 1.51 0 0 1-1.31 2.26H1.7a1.46 1.46 0 0 1-.74-.19 1.5 1.5 0 0 1-.56-2.07L14.67 3.78a1.5 1.5 0 0 1 2.61 0z"/><path fill="#c00000" fill-rule="evenodd" d="M31.12 29.02l-14.27-25a1 1 0 0 0-1.37-.37 1.09 1.09 0 0 0-.37.37l-14.28 25a1 1 0 0 0 .37 1.35 1 1 0 0 0 .5.13h28.55a1 1 0 0 0 1-1 1 1 0 0 0-.13-.48z"/><path d="M31.12 29.02a1 1 0 0 1 .13.49 1 1 0 0 1-1 1H1.7a1 1 0 0 1-.5-.13 1 1 0 0 1-.37-1.36l14.28-25a1.09 1.09 0 0 1 .37-.37 1 1 0 0 1 1.37.37zm-.43.25l-14.28-25a.49.49 0 0 0-.68-.18.47.47 0 0 0-.19.18l-14.27 25a.49.49 0 0 0 .18.68.54.54 0 0 0 .25.07h28.55a.5.5 0 0 0 .5-.5.5.5 0 0 0-.06-.26z" opacity=".5"/><g fill="#fff"><path d="M15.86 20.21h-5.45a.42.42 0 0 1 0-.83h5.45a1.16 1.16 0 1 0-1.16-1.17.42.42 0 1 1-.83 0 2 2 0 1 1 2 2m2.05 7.65a2 2 0 0 1-2-2 .41.41 0 1 1 .82 0 1.16 1.16 0 1 0 1.18-1.14h-7.51a.42.42 0 0 1 0-.83h7.51a2 2 0 0 1 0 4"/><path d="M21 22.5H10.41a.42.42 0 0 1 0-.83H21a1.16 1.16 0 1 0-1.14-1.16.43.43 0 0 1-.86 0 2 2 0 1 1 2 2"/></g></svg>