<svg xmlns="http://www.w3.org/2000/svg" xmlns:xlink="http://www.w3.org/1999/xlink" width="32" height="32"><defs><symbol id="icon-warning-orange-flood-a" viewBox="0 0 31.55 27.98"><path fill="#fff" fill-rule="evenodd" d="M31.36 25.74A1.51 1.51 0 0 1 30.05 28H1.5a1.46 1.46 0 0 1-.74-.19 1.5 1.5 0 0 1-.56-2.07L14.47.76a1.5 1.5 0 0 1 2.61 0z"/><path fill="#ff9d00" fill-rule="evenodd" d="M30.92 26L16.65 1a1 1 0 0 0-1.37-.37 1.09 1.09 0 0 0-.37.37L.63 26A1 1 0 0 0 1 27.35a1 1 0 0 0 .5.13h28.55a1 1 0 0 0 1-1 1 1 0 0 0-.13-.48z"/><path d="M30.92 26a1 1 0 0 1 .13.49 1 1 0 0 1-1 1H1.5a1 1 0 0 1-.5-.13A1 1 0 0 1 .63 26L14.91 1a1.09 1.09 0 0 1 .37-.37 1 1 0 0 1 1.37.37zm-.43.25l-14.28-25a.49.49 0 0 0-.68-.18.47.47 0 0 0-.19.18l-14.27 25a.49.49 0 0 0 .18.68.54.54 0 0 0 .25.07h28.55a.5.5 0 0 0 .5-.5.5.5 0 0 0-.06-.26z" opacity=".5"/></symbol><symbol id="icon-warning-orange-flood-b" viewBox="0 0 14 11.5"><path d="M14 8.5v1a3.42 3.42 0 0 1-2-.57 2.53 2.53 0 0 0-1.5-.43 2.53 2.53 0 0 0-1.5.43 3.42 3.42 0 0 1-2 .57 3.42 3.42 0 0 1-2-.57 2.51 2.51 0 0 0-1.5-.43 2.53 2.53 0 0 0-1.5.43 3.42 3.42 0 0 1-2 .57v-1a2.53 2.53 0 0 0 1.5-.43 3.42 3.42 0 0 1 2-.57 3.42 3.42 0 0 1 2 .57A2.53 2.53 0 0 0 7 8.5a2.51 2.51 0 0 0 1.5-.43 3.42 3.42 0 0 1 2-.57 3.42 3.42 0 0 1 2 .57 2.53 2.53 0 0 0 1.5.43z"/><path d="M14 10.5v1a3.42 3.42 0 0 1-2-.57 2.53 2.53 0 0 0-1.5-.43 2.53 2.53 0 0 0-1.5.43 3.42 3.42 0 0 1-2 .57 3.42 3.42 0 0 1-2-.57 2.51 2.51 0 0 0-1.5-.43 2.53 2.53 0 0 0-1.5.43 3.42 3.42 0 0 1-2 .57v-1a2.53 2.53 0 0 0 1.5-.43 3.42 3.42 0 0 1 2-.57 3.42 3.42 0 0 1 2 .57 2.53 2.53 0 0 0 1.5.43 2.51 2.51 0 0 0 1.5-.43 3.42 3.42 0 0 1 2-.57 3.42 3.42 0 0 1 2 .57 2.53 2.53 0 0 0 1.5.43zM12 4l-2-1.62V0H9v1.59L7 0 2 4h1v2.51a4.67 4.67 0 0 1 3 .8V5h2v2.31a4.28 4.28 0 0 1 3-.8V4z"/></symbol></defs><use width="31.55" height="27.98" transform="translate(.2 3.02)" xlink:href="#icon-warning-orange-flood-a"/><use width="14" height="11.5" transform="translate(9 17)" xlink:href="#icon-warning-orange-flood-b"/></svg>