<svg xmlns="http://www.w3.org/2000/svg" width="32" height="32"><path fill="#fff" fill-rule="evenodd" d="M31.56 28.76a1.51 1.51 0 0 1-1.31 2.26H1.7a1.46 1.46 0 0 1-.74-.19 1.5 1.5 0 0 1-.56-2.07L14.67 3.78a1.5 1.5 0 0 1 2.61 0z"/><path fill="#ff9d00" fill-rule="evenodd" d="M31.12 29.02l-14.27-25a1 1 0 0 0-1.37-.37 1.09 1.09 0 0 0-.37.37l-14.28 25a1 1 0 0 0 .37 1.35 1 1 0 0 0 .5.13h28.55a1 1 0 0 0 1-1 1 1 0 0 0-.13-.48z"/><path d="M31.12 29.02a1 1 0 0 1 .13.49 1 1 0 0 1-1 1H1.7a1 1 0 0 1-.5-.13 1 1 0 0 1-.37-1.36l14.28-25a1.09 1.09 0 0 1 .37-.37 1 1 0 0 1 1.37.37zm-.43.25l-14.28-25a.49.49 0 0 0-.68-.18.47.47 0 0 0-.19.18l-14.27 25a.49.49 0 0 0 .18.68.54.54 0 0 0 .25.07h28.55a.5.5 0 0 0 .5-.5.5.5 0 0 0-.06-.26z" opacity=".5"/><path d="M15.58 14v1.86l-1.67-.96-.39.69 2.06 1.19v3.28l-2.84-1.64v-2.38h-.8v1.92l-1.61-.93-.4.69 1.62.93-1.67.96.4.69 2.06-1.19 2.84 1.64-2.84 1.64-2.06-1.19-.4.69 1.67.96-1.62.93.4.69 1.61-.93v1.92h.8v-2.38l2.84-1.64v3.28l-2.06 1.19.39.69 1.67-.96v1.86h.79v-1.86l1.67.96.4-.69-2.07-1.19v-3.28l2.85 1.64v2.38h.79v-1.92l1.61.93.4-.69-1.61-.93 1.66-.96-.39-.69-2.07 1.19-2.84-1.64 2.84-1.64 2.07 1.19.39-.69-1.66-.96 1.61-.93-.4-.69-1.61.93v-1.92h-.79v2.38l-2.85 1.64v-3.28l2.07-1.19-.4-.69-1.67.96V14h-.79z"/></svg>