<svg xmlns="http://www.w3.org/2000/svg" xmlns:xlink="http://www.w3.org/1999/xlink" width="32" height="32"><defs><symbol id="icon-warning-orange-rain-a" viewBox="0 0 31.55 27.98"><path fill="#fff" fill-rule="evenodd" d="M31.36 25.74A1.51 1.51 0 0 1 30.05 28H1.5a1.46 1.46 0 0 1-.74-.19 1.5 1.5 0 0 1-.56-2.07L14.47.76a1.5 1.5 0 0 1 2.61 0z"/><path fill="#ff9d00" fill-rule="evenodd" d="M30.92 26L16.65 1a1 1 0 0 0-1.37-.37 1.09 1.09 0 0 0-.37.37L.63 26A1 1 0 0 0 1 27.35a1 1 0 0 0 .5.13h28.55a1 1 0 0 0 1-1 1 1 0 0 0-.13-.48z"/><path d="M30.92 26a1 1 0 0 1 .13.49 1 1 0 0 1-1 1H1.5a1 1 0 0 1-.5-.13A1 1 0 0 1 .63 26L14.91 1a1.09 1.09 0 0 1 .37-.37 1 1 0 0 1 1.37.37zm-.43.25l-14.28-25a.49.49 0 0 0-.68-.18.47.47 0 0 0-.19.18l-14.27 25a.49.49 0 0 0 .18.68.54.54 0 0 0 .25.07h28.55a.5.5 0 0 0 .5-.5.5.5 0 0 0-.06-.26z" opacity=".5"/></symbol><symbol id="icon-warning-orange-rain-b" viewBox="0 0 12 11.5"><path d="M8 6a4.48 4.48 0 0 1 2-.5 4.48 4.48 0 0 1 2 .5A6 6 0 0 0 0 6a4.48 4.48 0 0 1 2-.5A4.41 4.41 0 0 1 4 6a4.7 4.7 0 0 1 1.5-.47v4c0 1.41.36 2 1.49 2a1.39 1.39 0 0 0 1.32-.78A1.55 1.55 0 0 0 8.5 10a.5.5 0 0 0-1 0 .8.8 0 0 1-.07.28.41.41 0 0 1-.43.22c-.41 0-.5-.27-.5-1.5V5.53A4.57 4.57 0 0 1 8 6z"/></symbol></defs><use width="31.55" height="27.98" transform="translate(.2 3.02)" xlink:href="#icon-warning-orange-rain-a"/><use width="12" height="11.5" transform="translate(9.98 16.26)" xlink:href="#icon-warning-orange-rain-b"/></svg>