<svg xmlns="http://www.w3.org/2000/svg" xmlns:xlink="http://www.w3.org/1999/xlink" width="32" height="32"><defs><symbol id="icon-warning-red-snow-a" viewBox="0 0 31.55 27.98"><path fill="#fff" fill-rule="evenodd" d="M31.36 25.74A1.51 1.51 0 0 1 30.05 28H1.5a1.46 1.46 0 0 1-.74-.19 1.5 1.5 0 0 1-.56-2.07L14.47.76a1.5 1.5 0 0 1 2.61 0z"/><path fill="#c00000" fill-rule="evenodd" d="M30.92 26L16.65 1a1 1 0 0 0-1.37-.37 1.09 1.09 0 0 0-.37.37L.63 26A1 1 0 0 0 1 27.35a1 1 0 0 0 .5.13h28.55a1 1 0 0 0 1-1 1 1 0 0 0-.13-.48z"/><path d="M30.92 26a1 1 0 0 1 .13.49 1 1 0 0 1-1 1H1.5a1 1 0 0 1-.5-.13A1 1 0 0 1 .63 26L14.91 1a1.09 1.09 0 0 1 .37-.37 1 1 0 0 1 1.37.37zm-.43.25l-14.28-25a.49.49 0 0 0-.68-.18.47.47 0 0 0-.19.18l-14.27 25a.49.49 0 0 0 .18.68.54.54 0 0 0 .25.07h28.55a.5.5 0 0 0 .5-.5.5.5 0 0 0-.06-.26z" opacity=".5"/></symbol><symbol id="icon-warning-red-snow-b" viewBox="0 0 12.19 13.5"><path fill="#fff" d="M5.7 0v1.86L4.03.9l-.39.69L5.7 2.78v3.28L2.86 4.42V2.04h-.8v1.92L.45 3.03l-.4.69 1.62.93L0 5.61l.4.69 2.06-1.19L5.3 6.75 2.46 8.39.4 7.2l-.4.69 1.67.96-1.62.93.4.69 1.61-.93v1.92h.8V9.08L5.7 7.44v3.28l-2.06 1.19.39.69 1.67-.96v1.86h.79v-1.86l1.67.96.4-.69-2.07-1.19V7.44l2.85 1.64v2.38h.79V9.54l1.61.93.4-.69-1.61-.93 1.66-.96-.39-.69-2.07 1.19-2.84-1.64 2.84-1.64L11.8 6.3l.39-.69-1.66-.96 1.61-.93-.4-.69-1.61.93V2.04h-.79v2.38L6.49 6.06V2.78l2.07-1.19-.4-.69-1.67.96V0H5.7z"/></symbol></defs><use width="31.55" height="27.98" transform="translate(.2 3.02)" xlink:href="#icon-warning-red-snow-a"/><use width="12.19" height="13.5" transform="translate(9.88 14)" xlink:href="#icon-warning-red-snow-b"/></svg>