<svg xmlns="http://www.w3.org/2000/svg" width="32" height="32"><path fill="#fff" fill-rule="evenodd" d="M31.56 28.76a1.51 1.51 0 0 1-1.31 2.26H1.7a1.46 1.46 0 0 1-.74-.19 1.5 1.5 0 0 1-.56-2.07L14.67 3.78a1.5 1.5 0 0 1 2.61 0z"/><path fill="#ffe600" fill-rule="evenodd" d="M31.12 29.02l-14.27-25a1 1 0 0 0-1.37-.37 1.09 1.09 0 0 0-.37.37l-14.28 25a1 1 0 0 0 .37 1.35 1 1 0 0 0 .5.13h28.55a1 1 0 0 0 1-1 1 1 0 0 0-.13-.48z"/><path d="M31.12 29.02a1 1 0 0 1 .13.49 1 1 0 0 1-1 1H1.7a1 1 0 0 1-.5-.13 1 1 0 0 1-.37-1.36l14.28-25a1.09 1.09 0 0 1 .37-.37 1 1 0 0 1 1.37.37zm-.43.25l-14.28-25a.49.49 0 0 0-.68-.18.47.47 0 0 0-.19.18l-14.27 25a.49.49 0 0 0 .18.68.54.54 0 0 0 .25.07h28.55a.5.5 0 0 0 .5-.5.5.5 0 0 0-.06-.26z" opacity=".5"/><path d="M18 17.5a2 2 0 1 0 2 2 2 2 0 0 0-2-2m-4-3a1 1 0 1 0 1 1 1 1 0 0 0-1-1m9 14a3 3 0 1 0-3-3 3 3 0 0 0 3 3m-2.69 1.48H1.72a.54.54 0 0 1-.25-.06.51.51 0 0 1-.18-.69L9.5 14.86z"/></svg>