<svg xmlns="http://www.w3.org/2000/svg" width="32" height="32"><path fill="#fff" fill-rule="evenodd" d="M31.56 28.76a1.51 1.51 0 0 1-1.31 2.26H1.7a1.46 1.46 0 0 1-.74-.19 1.5 1.5 0 0 1-.56-2.07L14.67 3.78a1.5 1.5 0 0 1 2.61 0z"/><path fill="#c00000" fill-rule="evenodd" d="M31.12 29.02l-14.27-25a1 1 0 0 0-1.37-.37 1.09 1.09 0 0 0-.37.37l-14.28 25a1 1 0 0 0 .37 1.35 1 1 0 0 0 .5.13h28.55a1 1 0 0 0 1-1 1 1 0 0 0-.13-.48z"/><path d="M31.12 29.02a1 1 0 0 1 .13.49 1 1 0 0 1-1 1H1.7a1 1 0 0 1-.5-.13 1 1 0 0 1-.37-1.36l14.28-25a1.09 1.09 0 0 1 .37-.37 1 1 0 0 1 1.37.37zm-.43.25l-14.28-25a.49.49 0 0 0-.68-.18.47.47 0 0 0-.19.18l-14.27 25a.49.49 0 0 0 .18.68.54.54 0 0 0 .25.07h28.55a.5.5 0 0 0 .5-.5.5.5 0 0 0-.06-.26z" opacity=".5"/><path fill="#fff" d="M17.98 22.26a4.48 4.48 0 0 1 2-.5 4.48 4.48 0 0 1 2 .5 6 6 0 0 0-12 0 4.48 4.48 0 0 1 2-.5 4.41 4.41 0 0 1 2 .5 4.7 4.7 0 0 1 1.5-.47v4c0 1.41.36 2 1.49 2a1.39 1.39 0 0 0 1.32-.78 1.55 1.55 0 0 0 .19-.75.5.5 0 0 0-1 0 .8.8 0 0 1-.07.28.41.41 0 0 1-.43.22c-.41 0-.5-.27-.5-1.5v-3.47a4.57 4.57 0 0 1 1.5.47z"/></svg>