<svg xmlns="http://www.w3.org/2000/svg" xmlns:xlink="http://www.w3.org/1999/xlink" width="32" height="32"><defs><symbol id="icon-warning-yellow-forestfire-a" viewBox="0 0 31.55 27.98"><path fill="#fff" fill-rule="evenodd" d="M31.36 25.74A1.51 1.51 0 0 1 30.05 28H1.5a1.46 1.46 0 0 1-.74-.19 1.5 1.5 0 0 1-.56-2.07L14.47.76a1.5 1.5 0 0 1 2.61 0z"/><path fill="#ffe600" fill-rule="evenodd" d="M30.92 26L16.65 1a1 1 0 0 0-1.37-.37 1.09 1.09 0 0 0-.37.37L.63 26A1 1 0 0 0 1 27.35a1 1 0 0 0 .5.13h28.55a1 1 0 0 0 1-1 1 1 0 0 0-.13-.48z"/><path d="M30.92 26a1 1 0 0 1 .13.49 1 1 0 0 1-1 1H1.5a1 1 0 0 1-.5-.13A1 1 0 0 1 .63 26L14.91 1a1.09 1.09 0 0 1 .37-.37 1 1 0 0 1 1.37.37zm-.43.25l-14.28-25a.49.49 0 0 0-.68-.18.47.47 0 0 0-.19.18l-14.27 25a.49.49 0 0 0 .18.68.54.54 0 0 0 .25.07h28.55a.5.5 0 0 0 .5-.5.5.5 0 0 0-.06-.26z" opacity=".5"/></symbol><symbol id="icon-warning-yellow-forestfire-b" viewBox="0 0 10.24 13.57"><path d="M6.15 13.42h-.93c-.6 0-2.22-.14-2.22-1.35 0-.6.31-.87.54-1.61a3.14 3.14 0 0 0-.17-1.83 1.81 1.81 0 0 1 .94.59 1.44 1.44 0 0 1 .23.85 2.3 2.3 0 0 0 .84-1.35 3.46 3.46 0 0 0-.16-2 2.81 2.81 0 0 1 1.09 2.44v.7a2 2 0 0 0 .24 1 1.54 1.54 0 0 1 .11-1 1.7 1.7 0 0 1 .74-.75 1.74 1.74 0 0 0-.19.75c0 .95.8 1.14.8 1.94 0 1.12-.86 1.51-1.85 1.6M8.75 2.89a4.08 4.08 0 0 0-1.19 1.66 4 4 0 0 0-.48 1.75 4.76 4.76 0 0 1-1.72-2.79A4.7 4.7 0 0 1 5.87 0a5.16 5.16 0 0 0-2.41 4.43v1.43a3.89 3.89 0 0 1-.49 2 3.18 3.18 0 0 0-.23-2 6.46 6.46 0 0 0-1.66-2.03 7.38 7.38 0 0 1 .38 2.09C1.5 7.88 0 8.33 0 10c0 2.89 2.33 3.59 4.91 3.59h1c1.92 0 4.38-.57 4.38-3.07a7.88 7.88 0 0 0-1.2-3.29 7 7 0 0 1-.34-4.34z"/></symbol></defs><use width="31.55" height="27.98" transform="translate(.2 3.02)" xlink:href="#icon-warning-yellow-forestfire-a"/><use width="10.25" height="13.57" transform="translate(10.85 14.43)" xlink:href="#icon-warning-yellow-forestfire-b"/></svg>