<svg xmlns="http://www.w3.org/2000/svg" width="32" height="32"><path fill="#fff" fill-rule="evenodd" d="M31.56 28.76a1.51 1.51 0 0 1-1.31 2.26H1.7a1.46 1.46 0 0 1-.74-.19 1.5 1.5 0 0 1-.56-2.07L14.67 3.78a1.5 1.5 0 0 1 2.61 0z"/><path fill="#ffe600" fill-rule="evenodd" d="M31.12 29.02l-14.27-25a1 1 0 0 0-1.37-.37 1.09 1.09 0 0 0-.37.37l-14.28 25a1 1 0 0 0 .37 1.35 1 1 0 0 0 .5.13h28.55a1 1 0 0 0 1-1 1 1 0 0 0-.13-.48z"/><path d="M31.12 29.02a1 1 0 0 1 .13.49 1 1 0 0 1-1 1H1.7a1 1 0 0 1-.5-.13 1 1 0 0 1-.37-1.36l14.28-25a1.09 1.09 0 0 1 .37-.37 1 1 0 0 1 1.37.37zm-.43.25l-14.28-25a.49.49 0 0 0-.68-.18.47.47 0 0 0-.19.18l-14.27 25a.49.49 0 0 0 .18.68.54.54 0 0 0 .25.07h28.55a.5.5 0 0 0 .5-.5.5.5 0 0 0-.06-.26z" opacity=".5"/><path d="M21.5 23.06a3.61 3.61 0 0 0-2-.56 3.61 3.61 0 0 0-2 .56 2.52 2.52 0 0 1-1.5.44 2.55 2.55 0 0 1-1.5-.44 3.59 3.59 0 0 0-2-.56 3.61 3.61 0 0 0-2 .56 2.55 2.55 0 0 1-1.5.44v1a3.53 3.53 0 0 0 2-.57 2.62 2.62 0 0 1 1.5-.43 2.6 2.6 0 0 1 1.5.43 3.53 3.53 0 0 0 2 .57 3.5 3.5 0 0 0 2-.57 2.62 2.62 0 0 1 1.5-.43 2.62 2.62 0 0 1 1.5.43 3.53 3.53 0 0 0 2 .57v-1a2.55 2.55 0 0 1-1.5-.44z"/><path d="M19.5 24.5a3.61 3.61 0 0 0-2 .56 2.52 2.52 0 0 1-1.5.44 2.55 2.55 0 0 1-1.5-.44 3.59 3.59 0 0 0-2-.56 3.61 3.61 0 0 0-2 .56 2.55 2.55 0 0 1-1.5.44v1a3.53 3.53 0 0 0 2-.57 2.62 2.62 0 0 1 1.5-.43 2.6 2.6 0 0 1 1.5.43 3.53 3.53 0 0 0 2 .57 3.5 3.5 0 0 0 2-.57 2.62 2.62 0 0 1 1.5-.43 2.62 2.62 0 0 1 1.5.43 3.53 3.53 0 0 0 2 .57v-1a2.55 2.55 0 0 1-1.5-.44 3.61 3.61 0 0 0-2-.56zm-4-9.3v5.3h1v-5.3l2 2 .71-.7-2.5-2.5-.71-.71-.71.71-2.5 2.5.71.7 2-2z"/></svg>