<svg xmlns="http://www.w3.org/2000/svg" xmlns:xlink="http://www.w3.org/1999/xlink" width="32" height="32"><defs><symbol id="icon-warning-yellow-landslide-b" viewBox="0 0 31.55 27.98"><path fill="#fff" fill-rule="evenodd" d="M31.36 25.74A1.51 1.51 0 0 1 30.05 28H1.5a1.46 1.46 0 0 1-.74-.19 1.5 1.5 0 0 1-.56-2.07L14.47.76a1.5 1.5 0 0 1 2.61 0z"/><path fill="#ffe600" fill-rule="evenodd" d="M30.92 26L16.65 1a1 1 0 0 0-1.37-.37 1.09 1.09 0 0 0-.37.37L.63 26A1 1 0 0 0 1 27.35a1 1 0 0 0 .5.13h28.55a1 1 0 0 0 1-1 1 1 0 0 0-.13-.48z"/><path d="M30.92 26a1 1 0 0 1 .13.49 1 1 0 0 1-1 1H1.5a1 1 0 0 1-.5-.13A1 1 0 0 1 .63 26L14.91 1a1.09 1.09 0 0 1 .37-.37 1 1 0 0 1 1.37.37zm-.43.25l-14.28-25a.49.49 0 0 0-.68-.18.47.47 0 0 0-.19.18l-14.27 25a.49.49 0 0 0 .18.68.54.54 0 0 0 .25.07h28.55a.5.5 0 0 0 .5-.5.5.5 0 0 0-.06-.26z" opacity=".5"/></symbol><symbol id="icon-warning-yellow-landslide-a" viewBox="0 0 24.78 15.48"><path d="M16.78 3a2 2 0 1 0 2 2 2 2 0 0 0-2-2m-4-3a1 1 0 1 0 1 1 1 1 0 0 0-1-1m9 14a3 3 0 1 0-3-3 3 3 0 0 0 3 3m-2.69 1.48H.5a.54.54 0 0 1-.25-.06.51.51 0 0 1-.18-.69L8.28.36z"/></symbol><symbol id="icon-warning-yellow-landslide-c" viewBox="0 0 24.78 15.48"><use width="24.78" height="15.48" xlink:href="#icon-warning-yellow-landslide-a"/></symbol></defs><use width="31.55" height="27.98" transform="translate(.2 3.02)" xlink:href="#icon-warning-yellow-landslide-b"/><use width="24.78" height="15.48" transform="translate(1.22 14.5)" xlink:href="#icon-warning-yellow-landslide-c"/></svg>