<svg xmlns="http://www.w3.org/2000/svg" xmlns:xlink="http://www.w3.org/1999/xlink" width="32" height="32"><defs><symbol id="icon-warning-orange-polarlow-a" viewBox="0 0 31.55 27.98"><path fill="#fff" fill-rule="evenodd" d="M31.36 25.74A1.51 1.51 0 0 1 30.05 28H1.5a1.46 1.46 0 0 1-.74-.19 1.5 1.5 0 0 1-.56-2.07L14.47.76a1.5 1.5 0 0 1 2.61 0z"/><path fill="#ff9d00" fill-rule="evenodd" d="M30.92 26L16.65 1a1 1 0 0 0-1.37-.37 1.09 1.09 0 0 0-.37.37L.63 26A1 1 0 0 0 1 27.35a1 1 0 0 0 .5.13h28.55a1 1 0 0 0 1-1 1 1 0 0 0-.13-.48z"/><path d="M30.92 26a1 1 0 0 1 .13.49 1 1 0 0 1-1 1H1.5a1 1 0 0 1-.5-.13A1 1 0 0 1 .63 26L14.91 1a1.09 1.09 0 0 1 .37-.37 1 1 0 0 1 1.37.37zm-.43.25l-14.28-25a.49.49 0 0 0-.68-.18.47.47 0 0 0-.19.18l-14.27 25a.49.49 0 0 0 .18.68.54.54 0 0 0 .25.07h28.55a.5.5 0 0 0 .5-.5.5.5 0 0 0-.06-.26z" opacity=".5"/></symbol><symbol id="icon-warning-orange-polarlow-b" viewBox="0 0 12 9.27"><path d="M6 6.23a1.6 1.6 0 1 0-1.59-1.59A1.59 1.59 0 0 0 6 6.23m-4-.15a4.71 4.71 0 0 1-.1-1A5.07 5.07 0 0 1 12 4.93a5.06 5.06 0 0 0-2-1.74 4.81 4.81 0 0 1 .1 1A5.07 5.07 0 0 1 0 4.34a5.06 5.06 0 0 0 2 1.74"/></symbol></defs><use width="31.55" height="27.98" transform="translate(.2 3.02)" xlink:href="#icon-warning-orange-polarlow-a"/><use width="12" height="9.27" transform="translate(9.98 16)" xlink:href="#icon-warning-orange-polarlow-b"/></svg>