<svg width="32" height="32" viewBox="0 0 32 32" fill="none" xmlns="http://www.w3.org/2000/svg">
<path fill-rule="evenodd" clip-rule="evenodd" d="M31.5563 28.2405C31.6858 28.4671 31.7539 28.7237 31.7539 28.9847C31.7539 29.8131 31.0823 30.4847 30.2539 30.4847H1.70025C1.43921 30.4847 1.18269 30.4166 0.956045 30.2871C0.236769 29.876 -0.013126 28.9598 0.397889 28.2405L14.6747 3.25605C14.8076 3.0235 15.0003 2.83078 15.2329 2.69789C15.9521 2.28688 16.8684 2.53677 17.2794 3.25605L31.5563 28.2405Z" fill="white"/>
<path fill-rule="evenodd" clip-rule="evenodd" d="M30.2768 30C31.0446 30 31.526 29.1705 31.1451 28.5039L16.8682 3.51942C16.4843 2.84761 15.5157 2.84761 15.1318 3.51943L0.854936 28.5039C0.473989 29.1705 0.955357 30 1.72318 30H30.2768Z" fill="#C60000"/>
<path fill-rule="evenodd" clip-rule="evenodd" d="M31.2768 29C31.2768 28.826 31.2314 28.6549 31.1451 28.5038L16.8682 3.51941C16.5942 3.0399 15.9834 2.8733 15.5039 3.14731C15.3488 3.2359 15.2203 3.36438 15.1318 3.51941L0.854935 28.5038C0.580925 28.9834 0.747522 29.5942 1.22704 29.8682C1.37814 29.9546 1.54915 30 1.72318 30H30.2768C30.8291 30 31.2768 29.5523 31.2768 29ZM16.4341 3.76748L30.7109 28.7519C30.7541 28.8275 30.7768 28.913 30.7768 29C30.7768 29.2761 30.553 29.5 30.2768 29.5H1.72318C1.63616 29.5 1.55066 29.4773 1.47511 29.4341C1.23535 29.2971 1.15205 28.9917 1.28906 28.7519L15.5659 3.76748C15.6102 3.68997 15.6744 3.62573 15.7519 3.58143C15.9917 3.44443 16.2971 3.52772 16.4341 3.76748Z" fill="#731415"/>
<mask id="mask0" mask-type="alpha" maskUnits="userSpaceOnUse" x="9" y="12" width="14" height="10">
<path d="M23 22C22.3727 22 22.0857 21.9016 21.4983 21.5659C20.7734 21.1516 20.3314 21 19.5005 21C18.6698 21 18.2279 21.1516 17.5031 21.5659C16.9159 21.9016 16.629 22 16.0019 22C15.3743 22 15.0871 21.9016 14.4995 21.5658C13.7742 21.1516 13.3321 21 12.501 21C11.6698 21 11.2277 21.1516 10.5025 21.5658C9.91482 21.9016 9.6276 22 9 22V12.5H23V22Z" fill="white"/>
</mask>
<g mask="url(#mask0)">
<path fill-rule="evenodd" clip-rule="evenodd" d="M16 14.5L11 18.5001L12 18.5003V22.5H15V19.5H17V22.5H20V18.5L21 18.5003L16 14.5Z" fill="white"/>
<rect x="18" y="14.5" width="1" height="3" fill="white"/>
</g>
<path d="M23 23V24C22.1691 24 21.7271 23.8484 21.0021 23.4341C20.4148 23.0984 20.1277 23 19.5005 23C18.8734 23 18.5865 23.0984 17.9994 23.4341C17.2746 23.8484 16.8326 24 16.0019 24C15.1708 24 14.7287 23.8484 14.0034 23.4342C13.4158 23.0984 13.1286 23 12.501 23C11.8734 23 11.5861 23.0984 10.9985 23.4342C10.2733 23.8484 9.83113 24 9 24V23C9.6276 23 9.91482 22.9016 10.5025 22.5658C11.2277 22.1516 11.6698 22 12.501 22C13.3321 22 13.7742 22.1516 14.4995 22.5658C15.0871 22.9016 15.3743 23 16.0019 23C16.629 23 16.9159 22.9016 17.5031 22.5659C18.2279 22.1516 18.6698 22 19.5005 22C20.3314 22 20.7734 22.1516 21.4983 22.5659C22.0857 22.9016 22.3727 23 23 23Z" fill="white"/>
<path d="M23 25V26C22.1691 26 21.7271 25.8484 21.0021 25.4341C20.4148 25.0984 20.1277 25 19.5005 25C18.8734 25 18.5865 25.0984 17.9994 25.4341C17.2746 25.8484 16.8326 26 16.0019 26C15.1708 26 14.7287 25.8484 14.0034 25.4342C13.4158 25.0984 13.1286 25 12.501 25C11.8734 25 11.5861 25.0984 10.9985 25.4342C10.2733 25.8484 9.83113 26 9 26V25C9.6276 25 9.91482 24.9016 10.5025 24.5658C11.2277 24.1516 11.6698 24 12.501 24C13.3321 24 13.7742 24.1516 14.4995 24.5658C15.0871 24.9016 15.3743 25 16.0019 25C16.629 25 16.9159 24.9016 17.5031 24.5659C18.2279 24.1516 18.6698 24 19.5005 24C20.3314 24 20.7734 24.1516 21.4983 24.5659C22.0857 24.9016 22.3727 25 23 25Z" fill="white"/>
</svg>
