<svg width="32" height="32" viewBox="0 0 32 32" fill="none" xmlns="http://www.w3.org/2000/svg">
<path fill-rule="evenodd" clip-rule="evenodd" d="M31.5563 28.2405C31.6858 28.4671 31.7539 28.7237 31.7539 28.9847C31.7539 29.8131 31.0823 30.4847 30.2539 30.4847H1.70025C1.43921 30.4847 1.18269 30.4166 0.956045 30.2871C0.236769 29.876 -0.013126 28.9598 0.397889 28.2405L14.6747 3.25605C14.8076 3.0235 15.0003 2.83078 15.2329 2.69789C15.9521 2.28688 16.8684 2.53677 17.2794 3.25605L31.5563 28.2405Z" fill="white"/>
<path fill-rule="evenodd" clip-rule="evenodd" d="M30.2768 30C31.0446 30 31.526 29.1705 31.1451 28.5039L16.8682 3.51942C16.4843 2.84761 15.5157 2.84761 15.1318 3.51943L0.854936 28.5039C0.473989 29.1705 0.955357 30 1.72318 30H30.2768Z" fill="black"/>
<path fill-rule="evenodd" clip-rule="evenodd" d="M31.2768 29C31.2768 28.826 31.2314 28.655 31.1451 28.5039L16.8682 3.51943C16.5942 3.03991 15.9834 2.87331 15.5039 3.14732C15.3488 3.23591 15.2203 3.3644 15.1318 3.51943L0.854935 28.5039C0.580925 28.9834 0.747522 29.5942 1.22704 29.8682C1.37814 29.9546 1.54915 30 1.72318 30H30.2768C30.8291 30 31.2768 29.5523 31.2768 29ZM16.4341 3.7675L30.7109 28.7519C30.7541 28.8275 30.7768 28.913 30.7768 29C30.7768 29.2761 30.553 29.5 30.2768 29.5H1.72318C1.63616 29.5 1.55066 29.4773 1.47511 29.4341C1.23535 29.2971 1.15205 28.9917 1.28906 28.7519L15.5659 3.7675C15.6102 3.68998 15.6744 3.62574 15.7519 3.58145C15.9917 3.44444 16.2971 3.52774 16.4341 3.7675Z" fill="#908715"/>
<path fill-rule="evenodd" clip-rule="evenodd" d="M18 17C16.8952 17 16 17.8955 16 19C16 20.1048 16.8952 21 18 21C19.1048 21 20 20.1048 20 19C20 17.8955 19.1048 17 18 17Z" fill="white"/>
<path fill-rule="evenodd" clip-rule="evenodd" d="M14 14C13.4475 14 13 14.4478 13 15C13 15.5522 13.4475 16.0003 14 16.0003C14.5522 16.0003 15 15.5522 15 15C15 14.4478 14.5522 14 14 14Z" fill="white"/>
<path fill-rule="evenodd" clip-rule="evenodd" d="M23 28C24.6571 28 26 26.6568 26 25.0002C26 23.3432 24.6571 22 23 22C21.3429 22 20 23.3432 20 25.0002C20 26.6568 21.3429 28 23 28Z" fill="white"/>
<path fill-rule="evenodd" clip-rule="evenodd" d="M20.3131 29.4963L9.50892 14.3705L1.29308 28.7482C1.15607 28.988 1.23937 29.2934 1.47913 29.4304C1.55468 29.4736 1.64018 29.4963 1.7272 29.4963H20.3131Z" fill="#FFE600"/>
</svg>
