<svg id="Layer_1" data-name="Layer 1" xmlns="http://www.w3.org/2000/svg" xmlns:xlink="http://www.w3.org/1999/xlink" width="32" height="32" viewBox="0 0 32 32"><defs><style>.cls-1,.cls-2{fill:#fff;}.cls-2,.cls-3{fill-rule:evenodd;}.cls-3{fill:#c00000;}.cls-4{opacity:0.5;}</style><symbol id="red" data-name="red" viewBox="0 0 31.55 27.98"><path class="cls-2" d="M31.36,25.74A1.51,1.51,0,0,1,30.05,28H1.5a1.46,1.46,0,0,1-.74-.19A1.5,1.5,0,0,1,.2,25.74L14.47.76a1.5,1.5,0,0,1,2.61,0Z"/><path class="cls-3" d="M30.92,26,16.65,1A1,1,0,0,0,15.28.63a1.09,1.09,0,0,0-.37.37L.63,26A1,1,0,0,0,1,27.35a1,1,0,0,0,.5.13H30.05a1,1,0,0,0,1-1A1,1,0,0,0,30.92,26Z"/><path class="cls-4" d="M30.92,26a1,1,0,0,1,.13.49,1,1,0,0,1-1,1H1.5a1,1,0,0,1-.5-.13A1,1,0,0,1,.63,26L14.91,1a1.09,1.09,0,0,1,.37-.37A1,1,0,0,1,16.65,1Zm-.43.25-14.28-25a.49.49,0,0,0-.68-.18.47.47,0,0,0-.19.18l-14.27,25a.49.49,0,0,0,.18.68A.54.54,0,0,0,1.5,27H30.05a.5.5,0,0,0,.5-.5A.5.5,0,0,0,30.49,26.24Z"/></symbol><symbol id="flood_2" data-name="flood 2" viewBox="0 0 14 11.5"><path id="Stroke-1" class="cls-1" d="M14,8.5v1a3.42,3.42,0,0,1-2-.57,2.53,2.53,0,0,0-1.5-.43A2.53,2.53,0,0,0,9,8.93,3.42,3.42,0,0,1,7,9.5a3.42,3.42,0,0,1-2-.57A2.51,2.51,0,0,0,3.5,8.5,2.53,2.53,0,0,0,2,8.93,3.42,3.42,0,0,1,0,9.5v-1a2.53,2.53,0,0,0,1.5-.43,3.42,3.42,0,0,1,2-.57,3.42,3.42,0,0,1,2,.57A2.53,2.53,0,0,0,7,8.5a2.51,2.51,0,0,0,1.5-.43,3.42,3.42,0,0,1,2-.57,3.42,3.42,0,0,1,2,.57A2.53,2.53,0,0,0,14,8.5Z"/><path id="Stroke-3" class="cls-1" d="M14,10.5v1a3.42,3.42,0,0,1-2-.57,2.53,2.53,0,0,0-1.5-.43,2.53,2.53,0,0,0-1.5.43,3.42,3.42,0,0,1-2,.57,3.42,3.42,0,0,1-2-.57,2.51,2.51,0,0,0-1.5-.43,2.53,2.53,0,0,0-1.5.43,3.42,3.42,0,0,1-2,.57v-1a2.53,2.53,0,0,0,1.5-.43,3.42,3.42,0,0,1,2-.57,3.42,3.42,0,0,1,2,.57A2.53,2.53,0,0,0,7,10.5a2.51,2.51,0,0,0,1.5-.43,3.42,3.42,0,0,1,2-.57,3.42,3.42,0,0,1,2,.57A2.53,2.53,0,0,0,14,10.5Z"/><path class="cls-1" d="M12,4,10,2.38V0H9V1.59L7,0,2,4H3V6.51a4.67,4.67,0,0,1,3,.8V5H8V7.31a4.28,4.28,0,0,1,3-.8V4Z"/></symbol></defs><title>icon-warning-flood-red</title><use width="31.55" height="27.98" transform="translate(0.2 3.02)" xlink:href="#red"/><use width="14" height="11.5" transform="translate(9 17)" xlink:href="#flood_2"/></svg>