<svg width="32" height="32" viewBox="0 0 32 32" fill="none" xmlns="http://www.w3.org/2000/svg">
<path fill-rule="evenodd" clip-rule="evenodd" d="M31.5563 28.2405C31.6858 28.4671 31.7539 28.7237 31.7539 28.9847C31.7539 29.8131 31.0823 30.4847 30.2539 30.4847H1.70026C1.43922 30.4847 1.1827 30.4166 0.956049 30.2871C0.236773 29.876 -0.0131222 28.9598 0.397893 28.2405L14.6747 3.25605C14.8076 3.0235 15.0003 2.83078 15.2329 2.69789C15.9521 2.28688 16.8684 2.53677 17.2794 3.25605L31.5563 28.2405Z" fill="white"/>
<path fill-rule="evenodd" clip-rule="evenodd" d="M30.2768 30C31.0446 30 31.526 29.1705 31.1451 28.5039L16.8682 3.51942C16.4843 2.84761 15.5157 2.84761 15.1318 3.51943L0.854936 28.5039C0.473989 29.1705 0.955357 30 1.72318 30H30.2768Z" fill="#C60000"/>
<path fill-rule="evenodd" clip-rule="evenodd" d="M31.2768 29C31.2768 28.826 31.2314 28.6549 31.1451 28.5038L16.8682 3.51941C16.5942 3.0399 15.9834 2.8733 15.5039 3.14731C15.3488 3.2359 15.2203 3.36438 15.1318 3.51941L0.854935 28.5038C0.580925 28.9834 0.747522 29.5942 1.22704 29.8682C1.37814 29.9546 1.54915 30 1.72318 30H30.2768C30.8291 30 31.2768 29.5523 31.2768 29ZM16.4341 3.76748L30.7109 28.7519C30.7541 28.8275 30.7768 28.913 30.7768 29C30.7768 29.2761 30.553 29.5 30.2768 29.5H1.72318C1.63616 29.5 1.55066 29.4773 1.47511 29.4341C1.23535 29.2971 1.15205 28.9917 1.28906 28.7519L15.5659 3.76748C15.6102 3.68997 15.6744 3.62573 15.7519 3.58143C15.9917 3.44443 16.2971 3.52772 16.4341 3.76748Z" fill="#731415"/>
<path fill-rule="evenodd" clip-rule="evenodd" d="M17.1465 26.42C16.9048 26.4408 16.4662 26.42 16.2198 26.42C15.621 26.42 14 26.2813 14 25.0702C14 24.4701 14.3084 24.2023 14.5427 23.4563C14.7696 22.7338 14.4769 22.092 14.3663 21.6267C14.5427 21.6038 14.9491 21.6267 15.3087 22.216C15.4886 22.5108 15.5483 22.9286 15.5442 23.0685C15.7088 22.9568 16.1646 22.562 16.3837 21.7184C16.6097 20.8456 16.0919 20.1644 16 20C17.1118 20.7169 17.3055 21.7982 17.3102 22.1635C17.3167 22.6942 17.3102 22.1635 17.3028 22.8559C17.2992 23.2176 17.4057 23.6765 17.5386 23.8394C17.5104 23.7038 17.4472 23.3112 17.6542 22.8771C17.8754 22.4129 18.3754 22.0632 18.5 22C18.3168 22.4983 18.3251 22.6469 18.3408 23.0685C18.3679 23.7971 19 24.0189 19 24.8152C19 25.9408 18.1388 26.3338 17.1465 26.42ZM20 16C19.7282 16.1175 18.9519 16.8207 18.5637 17.5485C18.2293 18.1754 18.072 19.0139 18.0809 19.3026C17.7434 19.0722 16.619 17.7674 16.3611 16.5144C16.0799 15.1481 16.812 13.3393 17 13C14.7216 14.4789 14.4625 17.4313 14.4625 17.4313C14.4625 17.4313 14.4625 17.431 14.4772 18.8593C14.4852 19.6048 14.2671 20.5518 13.9938 20.8877C14.0524 20.6079 14.1818 19.7983 13.7579 18.9029C13.3041 17.9457 12.2558 17.1304 12 17C12.1715 17.347 12.4434 18.258 12.4572 18.9176C12.4986 20.8812 11 21.3343 11 22.9771C11 25.865 13.3327 26.5733 15.9123 26.5733H16.871C18.7883 26.5733 20.9307 25.5664 21.2452 23.5032C21.4497 22.162 20.4013 20.8137 20.0942 20.2254C19.3678 18.8335 19.773 16.9596 20 16Z" fill="white"/>
</svg>
