<svg width="32" height="32" viewBox="0 0 32 32" fill="none" xmlns="http://www.w3.org/2000/svg">
<path fill-rule="evenodd" clip-rule="evenodd" d="M31.5563 28.2405C31.6858 28.4671 31.7539 28.7237 31.7539 28.9847C31.7539 29.8131 31.0823 30.4847 30.2539 30.4847H1.70025C1.43921 30.4847 1.18269 30.4166 0.956045 30.2871C0.236769 29.876 -0.013126 28.9598 0.397889 28.2405L14.6747 3.25605C14.8076 3.0235 15.0003 2.83078 15.2329 2.69789C15.9521 2.28688 16.8684 2.53677 17.2794 3.25605L31.5563 28.2405Z" fill="white"/>
<path fill-rule="evenodd" clip-rule="evenodd" d="M30.2768 30C31.0446 30 31.526 29.1705 31.1451 28.5039L16.8682 3.51942C16.4843 2.84761 15.5157 2.84761 15.1318 3.51943L0.854936 28.5039C0.473989 29.1705 0.955357 30 1.72318 30H30.2768Z" fill="#C60000"/>
<path fill-rule="evenodd" clip-rule="evenodd" d="M31.2768 29C31.2768 28.826 31.2314 28.655 31.1451 28.5039L16.8682 3.51943C16.5942 3.03991 15.9834 2.87331 15.5039 3.14732C15.3488 3.23591 15.2203 3.3644 15.1318 3.51943L0.854935 28.5039C0.580925 28.9834 0.747522 29.5942 1.22704 29.8682C1.37814 29.9546 1.54915 30 1.72318 30H30.2768C30.8291 30 31.2768 29.5523 31.2768 29ZM16.4341 3.7675L30.7109 28.7519C30.7541 28.8275 30.7768 28.913 30.7768 29C30.7768 29.2761 30.553 29.5 30.2768 29.5H1.72318C1.63616 29.5 1.55066 29.4773 1.47511 29.4341C1.23535 29.2971 1.15205 28.9917 1.28906 28.7519L15.5659 3.7675C15.6102 3.68998 15.6744 3.62574 15.7519 3.58145C15.9917 3.44444 16.2971 3.52774 16.4341 3.7675Z" fill="#731415"/>
<path fill-rule="evenodd" clip-rule="evenodd" d="M10.5025 22.5658C10.9677 22.3001 11.4965 22 12.501 22C13.5054 22 14.0343 22.3001 14.4995 22.5658L14.5052 22.5691C14.9127 22.802 15.2594 23 16.0019 23C16.7438 23 17.0901 22.802 17.4973 22.5692L17.5031 22.5659C17.968 22.3002 18.4965 22 19.5005 22C20.5046 22 21.0333 22.3001 21.4983 22.5659L21.5041 22.5692C21.9114 22.802 22.2579 23 23 23V24C21.9958 24 21.4672 23.6999 21.0021 23.4341L20.9964 23.4308C20.589 23.198 20.2426 23 19.5005 23C18.7586 23 18.4123 23.198 18.0051 23.4308L17.9994 23.4341C17.5344 23.6998 17.0059 24 16.0019 24C14.9975 24 14.4686 23.6999 14.0034 23.4342L13.9977 23.4309C13.5902 23.198 13.2435 23 12.501 23C11.7584 23 11.4118 23.198 11.0043 23.4309L10.9985 23.4342C10.5333 23.6999 10.0045 24 9 24V23C9.74252 23 10.0892 22.802 10.4967 22.5691L10.5025 22.5658Z" fill="white"/>
<path fill-rule="evenodd" clip-rule="evenodd" d="M10.5025 24.5658C10.9677 24.3001 11.4965 24 12.501 24C13.5054 24 14.0343 24.3001 14.4995 24.5658L14.5052 24.5691C14.9127 24.802 15.2594 25 16.0019 25C16.7438 25 17.0901 24.802 17.4973 24.5692L17.5031 24.5659C17.968 24.3002 18.4965 24 19.5005 24C20.5046 24 21.0333 24.3001 21.4983 24.5659L21.5041 24.5692C21.9114 24.802 22.2579 25 23 25V26C21.9958 26 21.4672 25.6999 21.0021 25.4341L20.9964 25.4308C20.589 25.198 20.2426 25 19.5005 25C18.7586 25 18.4123 25.198 18.0051 25.4308L17.9994 25.4341C17.5344 25.6998 17.0059 26 16.0019 26C14.9975 26 14.4686 25.6999 14.0034 25.4342L13.9977 25.4309C13.5902 25.198 13.2435 25 12.501 25C11.7584 25 11.4118 25.198 11.0043 25.4309L10.9985 25.4342C10.5333 25.6999 10.0045 26 9 26V25C9.74252 25 10.0892 24.802 10.4967 24.5691L10.5025 24.5658Z" fill="white"/>
<path d="M16 20V14" stroke="white"/>
<path d="M16 14L18.5 16.5" stroke="white" stroke-linecap="square"/>
<path d="M16 14L13.5 16.5" stroke="white" stroke-linecap="square"/>
</svg>
