<svg width="32" height="32" viewBox="0 0 32 32" fill="none" xmlns="http://www.w3.org/2000/svg">
<path fill-rule="evenodd" clip-rule="evenodd" d="M31.5563 28.2405C31.6858 28.4671 31.7539 28.7237 31.7539 28.9847C31.7539 29.8131 31.0823 30.4847 30.2539 30.4847H1.70026C1.43922 30.4847 1.1827 30.4166 0.956049 30.2871C0.236773 29.876 -0.0131222 28.9598 0.397893 28.2405L14.6747 3.25605C14.8076 3.0235 15.0003 2.83078 15.2329 2.69789C15.9521 2.28688 16.8684 2.53677 17.2794 3.25605L31.5563 28.2405Z" fill="white"/>
<path fill-rule="evenodd" clip-rule="evenodd" d="M30.2768 30C31.0446 30 31.526 29.1705 31.1451 28.5039L16.8682 3.51942C16.4843 2.84761 15.5157 2.84761 15.1318 3.51943L0.854936 28.5039C0.473989 29.1705 0.955357 30 1.72318 30H30.2768Z" fill="#FF9D00"/>
<path fill-rule="evenodd" clip-rule="evenodd" d="M31.2768 29C31.2768 28.826 31.2314 28.655 31.1451 28.5039L16.8682 3.51943C16.5942 3.03991 15.9834 2.87331 15.5039 3.14732C15.3488 3.23591 15.2203 3.3644 15.1318 3.51943L0.854935 28.5039C0.580925 28.9834 0.747522 29.5942 1.22704 29.8682C1.37814 29.9546 1.54915 30 1.72318 30H30.2768C30.8291 30 31.2768 29.5523 31.2768 29ZM16.4341 3.7675L30.7109 28.7519C30.7541 28.8275 30.7768 28.913 30.7768 29C30.7768 29.2761 30.553 29.5 30.2768 29.5H1.72318C1.63616 29.5 1.55066 29.4773 1.47511 29.4341C1.23535 29.2971 1.15205 28.9917 1.28906 28.7519L15.5659 3.7675C15.6102 3.68998 15.6744 3.62574 15.7519 3.58145C15.9917 3.44444 16.2971 3.52774 16.4341 3.7675Z" fill="#906315"/>
<path d="M15.5 14H16.5V21H15.5V14Z" fill="black"/>
<path d="M15.702 16.3354L18.0149 15L18.5149 15.866L16.202 17.2014L15.702 16.3354Z" fill="black"/>
<path d="M16.3508 16.3467L14.0183 15L13.5183 15.866L15.8508 17.2127L16.3508 16.3467Z" fill="black"/>
<path d="M15.5 28H16.5V21H15.5V28Z" fill="black"/>
<path d="M15.702 25.6646L18.0149 27L18.5149 26.134L16.202 24.7986L15.702 25.6646Z" fill="black"/>
<path d="M16.3508 25.6533L14.0183 27L13.5183 26.134L15.8508 24.7873L16.3508 25.6533Z" fill="black"/>
<path d="M9.69612 17.9474L10.1961 17.0814L16.2583 20.5814L15.7583 21.4474L9.69612 17.9474Z" fill="black"/>
<path d="M11.8196 18.9402L11.8196 16.2694L12.8196 16.2694L12.8196 18.9402L11.8196 18.9402Z" fill="black"/>
<path d="M12.1538 18.3839L9.82131 19.7306L10.3213 20.5966L12.6538 19.2499L12.1538 18.3839Z" fill="black"/>
<path d="M21.8205 24.9474L22.3205 24.0814L16.2583 20.5814L15.7583 21.4474L21.8205 24.9474Z" fill="black"/>
<path d="M19.899 23.6048L22.2119 22.2694L21.7119 21.4034L19.399 22.7388L19.899 23.6048Z" fill="black"/>
<path d="M20.2136 23.0372L20.2136 25.7306L19.2136 25.7306L19.2136 23.0372L20.2136 23.0372Z" fill="black"/>
<path d="M10.2127 24.9474L9.71273 24.0814L15.7749 20.5814L16.2749 21.4474L10.2127 24.9474Z" fill="black"/>
<path d="M12.1342 23.6048L9.82131 22.2694L10.3213 21.4034L12.6342 22.7388L12.1342 23.6048Z" fill="black"/>
<path d="M11.8196 23.0372L11.8196 25.7306L12.8196 25.7306L12.8196 23.0372L11.8196 23.0372Z" fill="black"/>
<path d="M22.3371 17.9474L21.8371 17.0814L15.7749 20.5814L16.2749 21.4474L22.3371 17.9474Z" fill="black"/>
<path d="M20.2136 18.9402L20.2136 16.2694L19.2136 16.2694L19.2136 18.9402L20.2136 18.9402Z" fill="black"/>
<path d="M19.8794 18.3839L22.2119 19.7306L21.7119 20.5966L19.3794 19.2499L19.8794 18.3839Z" fill="black"/>
</svg>
