<svg width="32" height="32" viewBox="0 0 32 32" fill="none" xmlns="http://www.w3.org/2000/svg">
<path fill-rule="evenodd" clip-rule="evenodd" d="M31.5563 28.2405C31.6858 28.4671 31.7539 28.7237 31.7539 28.9847C31.7539 29.8131 31.0823 30.4847 30.2539 30.4847H1.70025C1.43921 30.4847 1.18269 30.4166 0.956045 30.2871C0.236769 29.876 -0.013126 28.9598 0.397889 28.2405L14.6747 3.25605C14.8076 3.0235 15.0003 2.83078 15.2329 2.69789C15.9521 2.28688 16.8684 2.53677 17.2794 3.25605L31.5563 28.2405Z" fill="white"/>
<path fill-rule="evenodd" clip-rule="evenodd" d="M30.2768 30C31.0446 30 31.526 29.1705 31.1451 28.5039L16.8682 3.51942C16.4843 2.84761 15.5157 2.84761 15.1318 3.51943L0.854936 28.5039C0.473989 29.1705 0.955357 30 1.72318 30H30.2768Z" fill="#C60000"/>
<path fill-rule="evenodd" clip-rule="evenodd" d="M31.2768 29C31.2768 28.826 31.2314 28.655 31.1451 28.5039L16.8682 3.51943C16.5942 3.03991 15.9834 2.87331 15.5039 3.14732C15.3488 3.23591 15.2203 3.3644 15.1318 3.51943L0.854935 28.5039C0.580925 28.9834 0.747522 29.5942 1.22704 29.8682C1.37814 29.9546 1.54915 30 1.72318 30H30.2768C30.8291 30 31.2768 29.5523 31.2768 29ZM16.4341 3.7675L30.7109 28.7519C30.7541 28.8275 30.7768 28.913 30.7768 29C30.7768 29.2761 30.553 29.5 30.2768 29.5H1.72318C1.63616 29.5 1.55066 29.4773 1.47511 29.4341C1.23535 29.2971 1.15205 28.9917 1.28906 28.7519L15.5659 3.7675C15.6102 3.68998 15.6744 3.62574 15.7519 3.58145C15.9917 3.44444 16.2971 3.52774 16.4341 3.7675Z" fill="#731415"/>
<path fill-rule="evenodd" clip-rule="evenodd" d="M16 16C15.4477 16 15 16.4477 15 17H14C14 15.8954 14.8954 15 16 15C17.1046 15 18 15.8954 18 17C18 18.1046 17.1046 19 16 19V18C16.5523 18 17 17.5523 17 17C17 16.4477 16.5523 16 16 16Z" fill="white"/>
<path fill-rule="evenodd" clip-rule="evenodd" d="M18 26C17.4477 26 17 25.5523 17 25H16C16 26.1046 16.8954 27 18 27C19.1046 27 20 26.1046 20 25C20 23.8954 19.1046 23 18 23V24C18.5523 24 19 24.4477 19 25C19 25.5523 18.5523 26 18 26Z" fill="white"/>
<path fill-rule="evenodd" clip-rule="evenodd" d="M20.5 18.5C19.9477 18.5 19.5 18.9477 19.5 19.5H18.5C18.5 18.3954 19.3954 17.5 20.5 17.5C21.6046 17.5 22.5 18.3954 22.5 19.5C22.5 20.6046 21.6046 21.5 20.5 21.5V20.5C21.0523 20.5 21.5 20.0523 21.5 19.5C21.5 18.9477 21.0523 18.5 20.5 18.5Z" fill="white"/>
<rect x="9" y="18" width="7" height="1" fill="white"/>
<rect x="9" y="20.5" width="11.5" height="1" fill="white"/>
<rect x="9" y="23" width="9" height="1" fill="white"/>
</svg>
