<svg id="Layer_1" data-name="Layer 1" xmlns="http://www.w3.org/2000/svg" xmlns:xlink="http://www.w3.org/1999/xlink" width="32" height="32" viewBox="0 0 32 32"><defs><style>.cls-1,.cls-2{fill:#fff;}.cls-2,.cls-3{fill-rule:evenodd;}.cls-3{fill:#c00000;}.cls-4{opacity:0.5;}</style><symbol id="red" data-name="red" viewBox="0 0 31.55 27.98"><path class="cls-2" d="M31.36,25.74A1.51,1.51,0,0,1,30.05,28H1.5a1.46,1.46,0,0,1-.74-.19A1.5,1.5,0,0,1,.2,25.74L14.47.76a1.5,1.5,0,0,1,2.61,0Z"/><path class="cls-3" d="M30.92,26,16.65,1A1,1,0,0,0,15.28.63a1.09,1.09,0,0,0-.37.37L.63,26A1,1,0,0,0,1,27.35a1,1,0,0,0,.5.13H30.05a1,1,0,0,0,1-1A1,1,0,0,0,30.92,26Z"/><path class="cls-4" d="M30.92,26a1,1,0,0,1,.13.49,1,1,0,0,1-1,1H1.5a1,1,0,0,1-.5-.13A1,1,0,0,1,.63,26L14.91,1a1.09,1.09,0,0,1,.37-.37A1,1,0,0,1,16.65,1Zm-.43.25-14.28-25a.49.49,0,0,0-.68-.18.47.47,0,0,0-.19.18l-14.27,25a.49.49,0,0,0,.18.68A.54.54,0,0,0,1.5,27H30.05a.5.5,0,0,0,.5-.5A.5.5,0,0,0,30.49,26.24Z"/></symbol><symbol id="car_2" data-name="car 2" viewBox="0 0 13.68 13.25"><g id="car"><g id="Group"><path id="Fill-6" class="cls-1" d="M13.11,9.66C12.2,8.8,8.9,8.54,7.63,8.07a.92.92,0,0,1-.4-.26c-.2-.28.09-.46.2-.57l.66-.46a1.08,1.08,0,0,0-.55-.12,1.32,1.32,0,0,0-1,.71,1.08,1.08,0,0,0-.06.33c0,.21,0,.45.48.8,1.76,1,4.31,1,4.81,1.84a1.6,1.6,0,0,1,.13,1.59c-.13.38-.4,1.32-.4,1.32h1.89l0-.08A7.41,7.41,0,0,0,13.68,11a1.84,1.84,0,0,0-.57-1.36"/><path id="Fill-8" class="cls-1" d="M7.89,10.53A35.93,35.93,0,0,1,1.5,8.35c-.45-.24-.53-.51-.32-.71s1.2-.86,1.2-1.11c0-.09-.58-.08-.7-.08A5.77,5.77,0,0,0,.12,7.63C0,7.84,0,7.82,0,8a.88.88,0,0,0,.34.55c1,1,6.34,2.72,6.34,2.72l.31.12a1.24,1.24,0,0,1,.37.32.74.74,0,0,1,.12.33,1.55,1.55,0,0,1-.08.23,7.51,7.51,0,0,1-.61.82l-.15.15H8.49l0,0a3.14,3.14,0,0,0,.33-.48,1.89,1.89,0,0,0,.23-.89,1.43,1.43,0,0,0-1.18-1.31"/><path id="Fill-10" class="cls-1" d="M8.37,4l-1.18-.2.06-.39,1.19.19ZM6.2,4.9l-2-.33.07-.4,2,.33ZM3.62,3.25l-1.19-.2.07-.4,1.19.2ZM3.76.42,8,1.12a2.5,2.5,0,0,1,.38,1.71l-.16,0h0L5.8,2.29,3,1.93a.61.61,0,0,0-.19,0A2.56,2.56,0,0,1,3.76.42Zm5,2.73A2.86,2.86,0,0,0,8.22.8l0-.05L3.69,0,3.63,0A2.88,2.88,0,0,0,2.39,2.1a.79.79,0,0,0-.29.49L1.84,4.17l-.07.4L1.71,5A.41.41,0,0,0,2,5.43.42.42,0,0,0,2.5,5.1l.06-.4,5.15.86L7.65,6a.4.4,0,1,0,.79.14l.07-.4.06-.4.27-1.58A.83.83,0,0,0,8.72,3.15Z"/></g></g></symbol></defs><title>icon-warning-drivingconditions-red</title><use width="31.55" height="27.98" transform="translate(0.2 3.02)" xlink:href="#red"/><use width="13.68" height="13.25" transform="translate(10.13 14.06)" xlink:href="#car_2"/></svg>