<svg id="Layer_1" data-name="Layer 1" xmlns="http://www.w3.org/2000/svg" xmlns:xlink="http://www.w3.org/1999/xlink" width="32" height="32" viewBox="0 0 32 32"><defs><style>.cls-1{fill:#fff;}.cls-1,.cls-2{fill-rule:evenodd;}.cls-2{fill:#ffe600;}.cls-3{opacity:0.5;}</style><symbol id="yellow" data-name="yellow" viewBox="0 0 31.55 27.98"><path class="cls-1" d="M31.36,25.74A1.51,1.51,0,0,1,30.05,28H1.5a1.46,1.46,0,0,1-.74-.19A1.5,1.5,0,0,1,.2,25.74L14.47.76a1.5,1.5,0,0,1,2.61,0Z"/><path class="cls-2" d="M30.92,26,16.65,1A1,1,0,0,0,15.28.63a1.09,1.09,0,0,0-.37.37L.63,26A1,1,0,0,0,1,27.35a1,1,0,0,0,.5.13H30.05a1,1,0,0,0,1-1A1,1,0,0,0,30.92,26Z"/><path class="cls-3" d="M30.92,26a1,1,0,0,1,.13.49,1,1,0,0,1-1,1H1.5a1,1,0,0,1-.5-.13A1,1,0,0,1,.63,26L14.91,1a1.09,1.09,0,0,1,.37-.37A1,1,0,0,1,16.65,1Zm-.43.25-14.28-25a.49.49,0,0,0-.68-.18.47.47,0,0,0-.19.18l-14.27,25a.49.49,0,0,0,.18.68A.54.54,0,0,0,1.5,27H30.05a.5.5,0,0,0,.5-.5A.5.5,0,0,0,30.49,26.24Z"/></symbol><symbol id="stormsurge" data-name="stormsurge" viewBox="0 0 14 13.21"><path d="M12.5,9.77a3.61,3.61,0,0,0-2-.56,3.61,3.61,0,0,0-2,.56,2.52,2.52,0,0,1-1.5.44,2.55,2.55,0,0,1-1.5-.44,3.59,3.59,0,0,0-2-.56,3.61,3.61,0,0,0-2,.56,2.55,2.55,0,0,1-1.5.44v1a3.53,3.53,0,0,0,2-.57,2.62,2.62,0,0,1,1.5-.43,2.6,2.6,0,0,1,1.5.43,3.53,3.53,0,0,0,2,.57,3.5,3.5,0,0,0,2-.57,2.62,2.62,0,0,1,1.5-.43,2.62,2.62,0,0,1,1.5.43,3.53,3.53,0,0,0,2,.57v-1A2.55,2.55,0,0,1,12.5,9.77Z"/><path d="M10.5,11.21a3.61,3.61,0,0,0-2,.56,2.52,2.52,0,0,1-1.5.44,2.55,2.55,0,0,1-1.5-.44,3.59,3.59,0,0,0-2-.56,3.61,3.61,0,0,0-2,.56,2.55,2.55,0,0,1-1.5.44v1a3.53,3.53,0,0,0,2-.57,2.62,2.62,0,0,1,1.5-.43,2.6,2.6,0,0,1,1.5.43,3.53,3.53,0,0,0,2,.57,3.5,3.5,0,0,0,2-.57,2.62,2.62,0,0,1,1.5-.43,2.62,2.62,0,0,1,1.5.43,3.53,3.53,0,0,0,2,.57v-1a2.55,2.55,0,0,1-1.5-.44A3.61,3.61,0,0,0,10.5,11.21Z"/><polygon points="6.5 1.91 6.5 7.21 7.5 7.21 7.5 1.91 9.5 3.91 10.21 3.21 7.71 0.71 7 0 6.29 0.71 3.79 3.21 4.5 3.91 6.5 1.91"/></symbol></defs><title>icon-warning-yellow-stormsurge</title><use width="31.55" height="27.98" transform="translate(0.2 3.02)" xlink:href="#yellow"/><use width="14" height="13.21" transform="translate(9 13.29)" xlink:href="#stormsurge"/></svg>