<svg id="Layer_1" data-name="Layer 1" xmlns="http://www.w3.org/2000/svg" xmlns:xlink="http://www.w3.org/1999/xlink" width="32" height="32" viewBox="0 0 32 32"><defs><style>.cls-1{fill:#fff;}.cls-1,.cls-2{fill-rule:evenodd;}.cls-2{fill:#ffe600;}.cls-3{opacity:0.5;}</style><symbol id="yellow" data-name="yellow" viewBox="0 0 31.55 27.98"><path class="cls-1" d="M31.36,25.74A1.51,1.51,0,0,1,30.05,28H1.5a1.46,1.46,0,0,1-.74-.19A1.5,1.5,0,0,1,.2,25.74L14.47.76a1.5,1.5,0,0,1,2.61,0Z"/><path class="cls-2" d="M30.92,26,16.65,1A1,1,0,0,0,15.28.63a1.09,1.09,0,0,0-.37.37L.63,26A1,1,0,0,0,1,27.35a1,1,0,0,0,.5.13H30.05a1,1,0,0,0,1-1A1,1,0,0,0,30.92,26Z"/><path class="cls-3" d="M30.92,26a1,1,0,0,1,.13.49,1,1,0,0,1-1,1H1.5a1,1,0,0,1-.5-.13A1,1,0,0,1,.63,26L14.91,1a1.09,1.09,0,0,1,.37-.37A1,1,0,0,1,16.65,1Zm-.43.25-14.28-25a.49.49,0,0,0-.68-.18.47.47,0,0,0-.19.18l-14.27,25a.49.49,0,0,0,.18.68A.54.54,0,0,0,1.5,27H30.05a.5.5,0,0,0,.5-.5A.5.5,0,0,0,30.49,26.24Z"/></symbol><symbol id="slide-4" data-name="slide-4" viewBox="0 0 24.78 15.48"><g id="slide-pos"><path id="Fill-3" d="M16.78,3a2,2,0,1,0,2,2,2,2,0,0,0-2-2"/><path id="Fill-5" d="M12.78,0a1,1,0,1,0,1,1,1,1,0,0,0-1-1"/><path id="Fill-7" d="M21.78,14a3,3,0,1,0-3-3,3,3,0,0,0,3,3"/></g><path d="M19.09,15.48H.5a.54.54,0,0,1-.25-.06.51.51,0,0,1-.18-.69L8.28.36Z"/></symbol><symbol id="slide-3" data-name="slide-3" viewBox="0 0 24.78 15.48"><use width="24.78" height="15.48" xlink:href="#slide-4"/></symbol></defs><title>icon-warning-landslide-yellow</title><use width="31.55" height="27.98" transform="translate(0.2 3.02)" xlink:href="#yellow"/><use width="24.78" height="15.48" transform="translate(1.22 14.5)" xlink:href="#slide-3"/></svg>