<svg width="32" height="32" viewBox="0 0 32 32" fill="none" xmlns="http://www.w3.org/2000/svg">
<path fill-rule="evenodd" clip-rule="evenodd" d="M31.5563 28.2405C31.6858 28.4671 31.7539 28.7237 31.7539 28.9847C31.7539 29.8131 31.0823 30.4847 30.2539 30.4847H1.70027C1.43923 30.4847 1.18271 30.4166 0.95606 30.2871C0.236784 29.876 -0.0131108 28.9598 0.397904 28.2405L14.6747 3.25605C14.8076 3.0235 15.0003 2.83078 15.2329 2.69789C15.9522 2.28688 16.8684 2.53677 17.2795 3.25605L31.5563 28.2405Z" fill="white"/>
<path fill-rule="evenodd" clip-rule="evenodd" d="M30.2768 30C31.0446 30 31.526 29.1705 31.1451 28.5039L16.8682 3.51942C16.4843 2.84761 15.5157 2.84761 15.1318 3.51943L0.854936 28.5039C0.473989 29.1705 0.955357 30 1.72318 30H30.2768Z" fill="#FFE600"/>
<path fill-rule="evenodd" clip-rule="evenodd" d="M31.2768 29C31.2768 28.826 31.2314 28.6549 31.1451 28.5038L16.8683 3.51941C16.5942 3.0399 15.9834 2.8733 15.5039 3.14731C15.3488 3.2359 15.2204 3.36438 15.1318 3.51941L0.85495 28.5038C0.58094 28.9834 0.747537 29.5942 1.22705 29.8682C1.37815 29.9546 1.54917 30 1.72319 30H30.2768C30.8291 30 31.2768 29.5523 31.2768 29ZM16.4341 3.76748L30.711 28.7519C30.7541 28.8275 30.7768 28.913 30.7768 29C30.7768 29.2761 30.553 29.5 30.2768 29.5H1.72319C1.63618 29.5 1.55067 29.4773 1.47512 29.4341C1.23537 29.2971 1.15207 28.9917 1.28907 28.7519L15.5659 3.76748C15.6102 3.68997 15.6744 3.62573 15.7519 3.58143C15.9917 3.44443 16.2971 3.52772 16.4341 3.76748Z" fill="#908715"/>
<path fill-rule="evenodd" clip-rule="evenodd" d="M22.3713 23.7237C21.4565 22.8621 18.1555 22.6013 16.8949 22.1347C16.7573 22.0666 16.6675 22.079 16.4886 21.8776C16.2871 21.5979 16.5781 21.4189 16.6925 21.3039L17.3529 20.8394C17.3529 20.8394 17.0404 20.6885 16.7996 20.7247C16.2454 20.8087 15.9231 21.0987 15.7548 21.4356C15.7171 21.5312 15.6945 21.6316 15.6945 21.7622C15.6945 21.9752 15.7271 22.2187 16.1675 22.5636C17.9257 23.5496 20.481 23.5615 20.9814 24.4061C21.115 24.5838 21.4266 25.0787 21.1119 25.9939C20.9811 26.3758 20.7145 27.3178 20.7145 27.3178H22.5987L22.6182 27.2298C22.8349 26.5392 22.9447 25.8106 22.9447 25.0881C22.9447 24.988 22.9447 24.2049 22.3713 23.7237Z" fill="black"/>
<path fill-rule="evenodd" clip-rule="evenodd" d="M17.1508 24.5984C17.1508 24.5984 13.0421 23.6014 10.7586 22.4093C10.3118 22.1758 10.2253 21.9004 10.4387 21.7059C10.7783 21.3964 11.6415 20.8483 11.6415 20.5966C11.6415 20.501 11.0559 20.518 10.9366 20.518C10.9339 20.518 9.96147 21.0141 9.37956 21.6895C9.21795 21.8995 9.28338 21.8879 9.26025 22.0562C9.26025 22.2626 9.45504 22.4665 9.60325 22.6086C10.6036 23.5649 15.9355 25.3252 15.9355 25.3252C16.0466 25.3626 16.1406 25.4004 16.2463 25.4482C16.3835 25.517 16.5223 25.6326 16.623 25.7601C16.693 25.866 16.735 25.9978 16.7372 26.0922C16.718 26.1774 16.6897 26.2583 16.6562 26.3259C16.592 26.4537 16.1957 26.9857 16.0454 27.1452L15.9045 27.2946L17.7464 27.3059L17.7738 27.2724C17.8958 27.1193 17.9956 26.9596 18.0964 26.7973C18.2909 26.5015 18.3201 26.0964 18.3295 25.8998C18.3469 25.2175 17.764 24.7753 17.1508 24.5984Z" fill="black"/>
<path fill-rule="evenodd" clip-rule="evenodd" d="M17.6349 18.104L16.4464 17.9056L16.5125 17.5093L17.7013 17.7078L17.6349 18.104ZM15.4558 18.9617L13.4748 18.6311L13.5411 18.2352L15.5218 18.5657L15.4558 18.9617ZM12.881 17.3106L11.6925 17.1118L11.7586 16.7159L12.9471 16.9143L12.881 17.3106ZM13.0213 14.4835L17.2314 15.1862C17.3513 15.3457 17.6888 15.8966 17.613 16.8982C17.5622 16.8775 17.5089 16.8614 17.4529 16.8519H17.4523L15.0623 16.3589L12.2872 15.9897C12.2254 15.9794 12.164 15.9781 12.104 15.9818C12.3584 15.003 12.8579 14.5931 13.0213 14.4835ZM17.9831 17.2147C18.2004 15.647 17.5147 14.8944 17.4846 14.8627L17.4383 14.8134L12.948 14.0641L12.8883 14.0948C12.8494 14.1152 11.9558 14.5988 11.6521 16.1598C11.5041 16.2791 11.3961 16.4484 11.3626 16.6498L11.0978 18.2346L11.0318 18.6305L10.9658 19.0268C10.9292 19.2456 11.0768 19.4526 11.2957 19.4891C11.5145 19.5256 11.7214 19.378 11.758 19.1592L11.824 18.7629L16.9742 19.6224L16.9081 20.0187C16.8716 20.2375 17.0195 20.4444 17.2381 20.481C17.4569 20.5175 17.6641 20.3696 17.7007 20.1511L17.7667 19.7548L17.8328 19.3585L18.0975 17.7738C18.131 17.5717 18.0832 17.3754 17.9831 17.2147Z" fill="black"/>
</svg>
