<svg id="Layer_1" data-name="Layer 1" xmlns="http://www.w3.org/2000/svg" width="32" height="32" viewBox="0 0 32 32"><defs><style>.cls-1{fill:#fff;}.cls-1,.cls-2{fill-rule:evenodd;}.cls-2{fill:#ffe600;}.cls-3{opacity:0.5;}</style></defs><title>icon-warning-yellow-rain</title><g id="yellow"><path class="cls-1" d="M31.56,28.76a1.46,1.46,0,0,1,.19.74,1.5,1.5,0,0,1-1.5,1.5H1.7A1.47,1.47,0,0,1,1,30.8a1.49,1.49,0,0,1-.56-2l14.27-25a1.67,1.67,0,0,1,.56-.56,1.5,1.5,0,0,1,2.05.56Z"/><path class="cls-2" d="M31.12,29,16.85,4a1,1,0,0,0-1.74,0L.83,29a1,1,0,0,0,.37,1.37,1.13,1.13,0,0,0,.5.13H30.25a1,1,0,0,0,1-1A1,1,0,0,0,31.12,29Z"/><path class="cls-3" d="M31.12,29a1,1,0,0,1,.13.5,1,1,0,0,1-1,1H1.7a1.13,1.13,0,0,1-.5-.13A1,1,0,0,1,.83,29L15.11,4a1,1,0,0,1,1.74,0Zm-.43.25-14.28-25a.5.5,0,0,0-.68-.19.58.58,0,0,0-.19.19l-14.27,25a.49.49,0,0,0,.18.68A.45.45,0,0,0,1.7,30H30.25a.5.5,0,0,0,.5-.5A.54.54,0,0,0,30.69,29.25Z"/></g><g id="umbrella"><path d="M18,22.26a4.27,4.27,0,0,1,4,0,6,6,0,0,0-12,0,4.23,4.23,0,0,1,4,0,4.63,4.63,0,0,1,1.51-.47v4h0c0,1.4.36,2,1.49,2A1.39,1.39,0,0,0,18.3,27a1.72,1.72,0,0,0,.18-.72.5.5,0,0,0-.5-.5.5.5,0,0,0-.5.5.6.6,0,0,1-.08.27.39.39,0,0,1-.42.23c-.41,0-.5-.28-.5-1.5V21.79A4.52,4.52,0,0,1,18,22.26Z"/></g></svg>