<svg id="Layer_1" data-name="Layer 1" xmlns="http://www.w3.org/2000/svg" xmlns:xlink="http://www.w3.org/1999/xlink" width="32" height="32" viewBox="0 0 32 32"><defs><style>.cls-1,.cls-2{fill:#fff;}.cls-2,.cls-3{fill-rule:evenodd;}.cls-3{fill:#c00000;}.cls-4{opacity:0.5;}</style><symbol id="red" data-name="red" viewBox="0 0 31.55 27.98"><path class="cls-2" d="M31.36,25.74A1.51,1.51,0,0,1,30.05,28H1.5a1.46,1.46,0,0,1-.74-.19A1.5,1.5,0,0,1,.2,25.74L14.47.76a1.5,1.5,0,0,1,2.61,0Z"/><path class="cls-3" d="M30.92,26,16.65,1A1,1,0,0,0,15.28.63a1.09,1.09,0,0,0-.37.37L.63,26A1,1,0,0,0,1,27.35a1,1,0,0,0,.5.13H30.05a1,1,0,0,0,1-1A1,1,0,0,0,30.92,26Z"/><path class="cls-4" d="M30.92,26a1,1,0,0,1,.13.49,1,1,0,0,1-1,1H1.5a1,1,0,0,1-.5-.13A1,1,0,0,1,.63,26L14.91,1a1.09,1.09,0,0,1,.37-.37A1,1,0,0,1,16.65,1Zm-.43.25-14.28-25a.49.49,0,0,0-.68-.18.47.47,0,0,0-.19.18l-14.27,25a.49.49,0,0,0,.18.68A.54.54,0,0,0,1.5,27H30.05a.5.5,0,0,0,.5-.5A.5.5,0,0,0,30.49,26.24Z"/></symbol><symbol id="polar_2" data-name="polar 2" viewBox="0 0 12 9.27"><g id="low-pressure"><path id="Fill-1" class="cls-1" d="M6,6.23A1.6,1.6,0,1,0,4.41,4.64,1.59,1.59,0,0,0,6,6.23M2,6.08a4.71,4.71,0,0,1-.1-1A5.07,5.07,0,0,1,12,4.93a5.06,5.06,0,0,0-2-1.74,4.81,4.81,0,0,1,.1,1A5.07,5.07,0,0,1,0,4.34,5.06,5.06,0,0,0,2,6.08"/></g></symbol></defs><title>icon-warning-red-polarlow</title><use width="31.55" height="27.98" transform="translate(0.2 3.02)" xlink:href="#red"/><use width="12" height="9.27" transform="translate(9.98 16)" xlink:href="#polar_2"/></svg>