<svg id="Layer_1" data-name="Layer 1" xmlns="http://www.w3.org/2000/svg" xmlns:xlink="http://www.w3.org/1999/xlink" width="32" height="32" viewBox="0 0 32 32"><defs><style>.cls-1,.cls-2{fill:#fff;}.cls-2,.cls-3{fill-rule:evenodd;}.cls-3{fill:#c00000;}.cls-4{opacity:0.5;}</style><symbol id="red" data-name="red" viewBox="0 0 31.55 27.98"><path class="cls-2" d="M31.36,25.74A1.51,1.51,0,0,1,30.05,28H1.5a1.46,1.46,0,0,1-.74-.19A1.5,1.5,0,0,1,.2,25.74L14.47.76a1.5,1.5,0,0,1,2.61,0Z"/><path class="cls-3" d="M30.92,26,16.65,1A1,1,0,0,0,15.28.63a1.09,1.09,0,0,0-.37.37L.63,26A1,1,0,0,0,1,27.35a1,1,0,0,0,.5.13H30.05a1,1,0,0,0,1-1A1,1,0,0,0,30.92,26Z"/><path class="cls-4" d="M30.92,26a1,1,0,0,1,.13.49,1,1,0,0,1-1,1H1.5a1,1,0,0,1-.5-.13A1,1,0,0,1,.63,26L14.91,1a1.09,1.09,0,0,1,.37-.37A1,1,0,0,1,16.65,1Zm-.43.25-14.28-25a.49.49,0,0,0-.68-.18.47.47,0,0,0-.19.18l-14.27,25a.49.49,0,0,0,.18.68A.54.54,0,0,0,1.5,27H30.05a.5.5,0,0,0,.5-.5A.5.5,0,0,0,30.49,26.24Z"/></symbol><symbol id="fire_2" data-name="fire 2" viewBox="0 0 10.24 13.57"><g id="forestfire"><path id="Fill-6" class="cls-1" d="M6.15,13.42c-.25,0-.68,0-.93,0-.6,0-2.22-.14-2.22-1.35,0-.6.31-.87.54-1.61a3.14,3.14,0,0,0-.17-1.83,1.81,1.81,0,0,1,.94.59,1.44,1.44,0,0,1,.23.85,2.3,2.3,0,0,0,.84-1.35,3.46,3.46,0,0,0-.16-2A2.81,2.81,0,0,1,6.31,9.16c0,.53,0,0,0,.7a2,2,0,0,0,.24,1,1.54,1.54,0,0,1,.11-1,1.7,1.7,0,0,1,.74-.75,1.74,1.74,0,0,0-.19.75c0,.95.8,1.14.8,1.94,0,1.12-.86,1.51-1.85,1.6M8.75,2.89A4.08,4.08,0,0,0,7.56,4.55,4,4,0,0,0,7.08,6.3,4.76,4.76,0,0,1,5.36,3.51,4.7,4.7,0,0,1,5.87,0,5.16,5.16,0,0,0,3.46,4.43c0,1.1,0,0,0,1.43a3.89,3.89,0,0,1-.49,2,3.18,3.18,0,0,0-.23-2A6.46,6.46,0,0,0,1.08,3.83a7.38,7.38,0,0,1,.38,2.09C1.5,7.88,0,8.33,0,10c0,2.89,2.33,3.59,4.91,3.59h1c1.92,0,4.38-.57,4.38-3.07A7.88,7.88,0,0,0,9.09,7.23,7,7,0,0,1,8.75,2.89Z"/></g></symbol></defs><title>icon-warning-forestfire-red</title><use width="31.55" height="27.98" transform="translate(0.2 3.02)" xlink:href="#red"/><use width="10.25" height="13.57" transform="translate(10.85 14.43)" xlink:href="#fire_2"/></svg>