<svg id="Layer_1" data-name="Layer 1" xmlns="http://www.w3.org/2000/svg" xmlns:xlink="http://www.w3.org/1999/xlink" width="32" height="32" viewBox="0 0 32 32"><defs><style>.cls-1{fill:#fff;}.cls-1,.cls-2{fill-rule:evenodd;}.cls-2{fill:#ffe600;}.cls-3{opacity:0.5;}</style><symbol id="yellow" data-name="yellow" viewBox="0 0 31.55 27.98"><path class="cls-1" d="M31.36,25.74A1.51,1.51,0,0,1,30.05,28H1.5a1.46,1.46,0,0,1-.74-.19A1.5,1.5,0,0,1,.2,25.74L14.47.76a1.5,1.5,0,0,1,2.61,0Z"/><path class="cls-2" d="M30.92,26,16.65,1A1,1,0,0,0,15.28.63a1.09,1.09,0,0,0-.37.37L.63,26A1,1,0,0,0,1,27.35a1,1,0,0,0,.5.13H30.05a1,1,0,0,0,1-1A1,1,0,0,0,30.92,26Z"/><path class="cls-3" d="M30.92,26a1,1,0,0,1,.13.49,1,1,0,0,1-1,1H1.5a1,1,0,0,1-.5-.13A1,1,0,0,1,.63,26L14.91,1a1.09,1.09,0,0,1,.37-.37A1,1,0,0,1,16.65,1Zm-.43.25-14.28-25a.49.49,0,0,0-.68-.18.47.47,0,0,0-.19.18l-14.27,25a.49.49,0,0,0,.18.68A.54.54,0,0,0,1.5,27H30.05a.5.5,0,0,0,.5-.5A.5.5,0,0,0,30.49,26.24Z"/></symbol><symbol id="snowflake" data-name="snowflake" viewBox="0 0 12.19 13.5"><g id="snowflake-3" data-name="snowflake"><polygon id="Page-1" points="5.7 0 5.7 1.86 4.03 0.9 3.64 1.59 5.7 2.78 5.7 6.06 2.86 4.42 2.86 2.04 2.06 2.04 2.06 3.96 0.45 3.03 0.05 3.72 1.67 4.65 0 5.61 0.4 6.3 2.46 5.11 5.3 6.75 2.46 8.39 0.4 7.2 0 7.89 1.67 8.85 0.05 9.78 0.45 10.47 2.06 9.54 2.06 11.46 2.86 11.46 2.86 9.08 5.7 7.44 5.7 10.72 3.64 11.91 4.03 12.6 5.7 11.64 5.7 13.5 6.49 13.5 6.49 11.64 8.16 12.6 8.56 11.91 6.49 10.72 6.49 7.44 9.34 9.08 9.34 11.46 10.13 11.46 10.13 9.54 11.74 10.47 12.14 9.78 10.53 8.85 12.19 7.89 11.8 7.2 9.73 8.39 6.89 6.75 9.73 5.11 11.8 6.3 12.19 5.61 10.53 4.65 12.14 3.72 11.74 3.03 10.13 3.96 10.13 2.04 9.34 2.04 9.34 4.42 6.49 6.06 6.49 2.78 8.56 1.59 8.16 0.9 6.49 1.86 6.49 0 5.7 0"/></g></symbol></defs><title>icon-warning-snow-yellow</title><use width="31.55" height="27.98" transform="translate(0.2 3.02)" xlink:href="#yellow"/><use width="12.19" height="13.5" transform="translate(9.88 14)" xlink:href="#snowflake"/></svg>