<svg width="32" height="32" viewBox="0 0 32 32" fill="none" xmlns="http://www.w3.org/2000/svg">
<path fill-rule="evenodd" clip-rule="evenodd" d="M31.5563 28.2405C31.6858 28.4671 31.7539 28.7237 31.7539 28.9847C31.7539 29.8131 31.0823 30.4847 30.2539 30.4847H1.70025C1.43921 30.4847 1.18269 30.4166 0.956045 30.2871C0.236769 29.876 -0.013126 28.9598 0.397889 28.2405L14.6747 3.25605C14.8076 3.0235 15.0003 2.83078 15.2329 2.69789C15.9521 2.28688 16.8684 2.53677 17.2794 3.25605L31.5563 28.2405Z" fill="white"/>
<path fill-rule="evenodd" clip-rule="evenodd" d="M30.2768 30C31.0446 30 31.526 29.1705 31.1451 28.5039L16.8682 3.51942C16.4843 2.84761 15.5157 2.84761 15.1318 3.51943L0.854936 28.5039C0.473989 29.1705 0.955357 30 1.72318 30H30.2768Z" fill="#C60000"/>
<path fill-rule="evenodd" clip-rule="evenodd" d="M31.2768 29C31.2768 28.826 31.2314 28.655 31.1451 28.5039L16.8682 3.51943C16.5942 3.03991 15.9834 2.87331 15.5039 3.14732C15.3488 3.23591 15.2203 3.3644 15.1318 3.51943L0.854935 28.5039C0.580925 28.9834 0.747522 29.5942 1.22704 29.8682C1.37814 29.9546 1.54915 30 1.72318 30H30.2768C30.8291 30 31.2768 29.5523 31.2768 29ZM16.4341 3.7675L30.7109 28.7519C30.7541 28.8275 30.7768 28.913 30.7768 29C30.7768 29.2761 30.553 29.5 30.2768 29.5H1.72318C1.63616 29.5 1.55066 29.4773 1.47511 29.4341C1.23535 29.2971 1.15205 28.9917 1.28906 28.7519L15.5659 3.7675C15.6102 3.68998 15.6744 3.62574 15.7519 3.58145C15.9917 3.44444 16.2971 3.52774 16.4341 3.7675Z" fill="#731415"/>
<path fill-rule="evenodd" clip-rule="evenodd" d="M11.5831 23.3206L10.5863 27L11.6223 27L12.6192 23.3206L11.5831 23.3206ZM14.2498 23.3206L13.2529 27L14.289 27L15.2858 23.3206L14.2498 23.3206ZM16.9164 23.3206L15.9195 27L16.9556 27L17.9524 23.3206L16.9164 23.3206ZM19.583 23.3206L18.5862 27L19.6222 27L20.6191 23.3206L19.583 23.3206Z" fill="white"/>
<path d="M21.1372 17.421L20.9359 17.3226L20.8579 17.0253C20.6606 16.1666 20.1782 15.3999 19.4893 14.8505C18.8004 14.3011 17.9457 14.0013 17.0646 14C16.4297 14.0019 15.8055 14.1625 15.2486 14.4674C14.6917 14.7722 14.22 15.2116 13.8764 15.7454L13.6785 16.0363H13.1782C12.9003 16.0328 12.6261 16.1004 12.3816 16.2328C12.1372 16.3652 11.9308 16.5579 11.7819 16.7926L11.619 17.0486H11.3165C10.69 17.0892 10.1029 17.3682 9.6758 17.8282C9.27822 18.2641 9.04029 18.822 9.00091 19.4107V19.5503C8.98346 20.2051 9.21652 20.8418 9.65252 21.3306C10.0765 21.7919 10.6575 22.0783 11.2816 22.1335H20.2296C20.5399 22.1277 20.846 22.0598 21.1298 21.9339C21.4136 21.808 21.6693 21.6267 21.8819 21.4004C22.0253 21.2419 22.1538 21.0705 22.2658 20.8885C22.3624 20.6906 22.4403 20.4841 22.4986 20.2718C22.5453 20.0774 22.5688 19.8782 22.5684 19.6783C22.5748 19.2037 22.4429 18.7375 22.1888 18.3366C21.9346 17.9357 21.5692 17.6176 21.1372 17.421Z" fill="white"/>
</svg>
