<svg id="Layer_1" data-name="Layer 1" xmlns="http://www.w3.org/2000/svg" xmlns:xlink="http://www.w3.org/1999/xlink" width="32" height="32" viewBox="0 0 32 32"><defs><style>.cls-1,.cls-4{fill:#fff;}.cls-1,.cls-2{fill-rule:evenodd;}.cls-2{fill:#c00000;}.cls-3{opacity:0.5;}</style><symbol id="red" data-name="red" viewBox="0 0 31.55 27.98"><path class="cls-1" d="M31.36,25.74A1.51,1.51,0,0,1,30.05,28H1.5a1.46,1.46,0,0,1-.74-.19A1.5,1.5,0,0,1,.2,25.74L14.47.76a1.5,1.5,0,0,1,2.61,0Z"/><path class="cls-2" d="M30.92,26,16.65,1A1,1,0,0,0,15.28.63a1.09,1.09,0,0,0-.37.37L.63,26A1,1,0,0,0,1,27.35a1,1,0,0,0,.5.13H30.05a1,1,0,0,0,1-1A1,1,0,0,0,30.92,26Z"/><path class="cls-3" d="M30.92,26a1,1,0,0,1,.13.49,1,1,0,0,1-1,1H1.5a1,1,0,0,1-.5-.13A1,1,0,0,1,.63,26L14.91,1a1.09,1.09,0,0,1,.37-.37A1,1,0,0,1,16.65,1Zm-.43.25-14.28-25a.49.49,0,0,0-.68-.18.47.47,0,0,0-.19.18l-14.27,25a.49.49,0,0,0,.18.68A.54.54,0,0,0,1.5,27H30.05a.5.5,0,0,0,.5-.5A.5.5,0,0,0,30.49,26.24Z"/></symbol><symbol id="umbrella_2" data-name="umbrella 2" viewBox="0 0 12 11.5"><path class="cls-4" d="M8,6a4.48,4.48,0,0,1,2-.5A4.48,4.48,0,0,1,12,6,6,6,0,0,0,0,6a4.48,4.48,0,0,1,2-.5A4.41,4.41,0,0,1,4,6,4.7,4.7,0,0,1,5.5,5.53v4h0c0,1.41.36,2,1.49,2a1.39,1.39,0,0,0,1.32-.78A1.55,1.55,0,0,0,8.5,10a.5.5,0,0,0-1,0,.8.8,0,0,1-.07.28A.41.41,0,0,1,7,10.5c-.41,0-.5-.27-.5-1.5V5.53A4.57,4.57,0,0,1,8,6Z"/></symbol></defs><title>icon-warning-rain-red</title><use width="31.55" height="27.98" transform="translate(0.2 3.02)" xlink:href="#red"/><use width="12" height="11.5" transform="translate(9.98 16.26)" xlink:href="#umbrella_2"/></svg>